<svg version="1.1" viewBox="0.0 0.0 480.0 480.0" fill="none" stroke="none" stroke-linecap="square" stroke-miterlimit="10" xmlns:xlink="http://www.w3.org/1999/xlink" xmlns="http://www.w3.org/2000/svg"><clipPath id="p.0"><path d="m0 0l480.0 0l0 480.0l-480.0 0l0 -480.0z" clip-rule="nonzero"/></clipPath><g clip-path="url(#p.0)"><path fill="#000000" fill-opacity="0.0" d="m0 0l480.0 0l0 480.0l-480.0 0z" fill-rule="evenodd"/><defs><linearGradient id="p.1" gradientUnits="userSpaceOnUse" gradientTransform="matrix(24.717206020210813 0.0 0.0 24.717206020210813 0.0 0.0)" spreadMethod="pad" x1="-7.767868255133895" y1="9.709803794339939" x2="9.709804623934081" y2="27.187538892968636"><stop offset="0.0" stop-color="#060209"/><stop offset="0.32" stop-color="#49228f"/><stop offset="1.0" stop-color="#c485ff"/></linearGradient></defs><path fill="url(#p.1)" d="m24.0 240.0l0 0c0 -119.2935 96.7065 -216.0 216.0 -216.0l0 0c57.286774 0 112.2272 22.757076 152.73508 63.26494c40.507843 40.50786 63.264923 95.4483 63.264923 152.73506l0 0c0 119.29352 -96.70648 216.0 -216.0 216.0l0 0c-119.2935 0 -216.0 -96.70648 -216.0 -216.0z" fill-rule="evenodd"/><path stroke="#4e2a84" stroke-width="24.0" stroke-linejoin="round" stroke-linecap="butt" d="m24.0 240.0l0 0c0 -119.2935 96.7065 -216.0 216.0 -216.0l0 0c57.286774 0 112.2272 22.757076 152.73508 63.26494c40.507843 40.50786 63.264923 95.4483 63.264923 152.73506l0 0c0 119.29352 -96.70648 216.0 -216.0 216.0l0 0c-119.2935 0 -216.0 -96.70648 -216.0 -216.0z" fill-rule="evenodd"/></g></svg>